<?xml version="1.0" encoding="utf-8"?>
<!-- Generator: Adobe Illustrator 16.0.0, SVG Export Plug-In . SVG Version: 6.00 Build 0)  -->
<!DOCTYPE svg PUBLIC "-//W3C//DTD SVG 1.1//EN" "http://www.w3.org/Graphics/SVG/1.1/DTD/svg11.dtd">
<svg version="1.1" id="Layer_1" xmlns="http://www.w3.org/2000/svg" xmlns:xlink="http://www.w3.org/1999/xlink" x="0px" y="0px"
	 width="841.891px" height="595.279px" viewBox="0 0 841.891 595.279" enable-background="new 0 0 841.891 595.279"
	 xml:space="preserve">
<circle opacity="0.4" fill="#F7ADB3" enable-background="new    " cx="296" cy="297.64" r="285"/>
<g>
	<g>
		<g>
			<path fill="#221E40" d="M591.988,140.255l16.94-29.472c1.926-3.356,0.89-7.704-2.325-9.714c-3.224-2.019-7.383-0.935-9.31,2.43
				l-17.875,31.1c-10.644-3.952-22.041-6.218-33.969-6.218c-11.926,0-23.322,2.265-33.967,6.218l-17.876-31.1
				c-1.928-3.365-6.09-4.44-9.31-2.43c-3.212,2.01-4.253,6.358-2.325,9.714l16.94,29.472c-32.75,17.668-55.222,53.285-55.222,94.348
				c0,3.916,3.036,7.082,6.783,7.082h189.953c3.745,0,6.785-3.166,6.785-7.082C647.206,193.546,624.737,157.929,591.988,140.255z
				 M457.515,227.522c3.475-47.465,41.588-84.973,87.935-84.973c46.349,0,84.462,37.509,87.935,84.973H457.515z"/>
			<path fill="#221E40" d="M592.783,180.525h-8.941c-2.468,0-4.471,2.089-4.471,4.667v9.333c0,2.577,2.003,4.665,4.471,4.665h8.948
				c2.471,0,4.472-2.088,4.472-4.665v-9.333C597.261,182.614,595.253,180.525,592.783,180.525z"/>
			<path fill="#221E40" d="M507.052,180.525h-8.944c-2.472,0-4.473,2.089-4.473,4.667v9.333c0,2.577,2.001,4.665,4.473,4.665h8.944
				c2.471,0,4.472-2.088,4.472-4.665v-9.333C511.523,182.614,509.524,180.525,507.052,180.525z"/>
			<path fill="#221E40" d="M640.423,248.765H450.467c-3.744,0-6.786,3.165-6.786,7.082v142.832
				c0,18.854,14.717,34.193,32.795,34.193h7.913v42.53c0,15.592,12.169,28.28,27.135,28.28c14.965,0,27.136-12.688,27.136-28.28
				v-42.53h13.569v42.53c0,15.592,12.169,28.28,27.137,28.28c14.965,0,27.135-12.688,27.135-28.28v-42.53h7.912
				c18.085,0,32.794-15.339,32.794-34.193V255.847C647.206,251.93,644.174,248.765,640.423,248.765z M633.638,398.677
				c0,11.046-8.624,20.031-19.227,20.031h-14.697c-3.743,0-6.782,3.166-6.782,7.082v49.612c0,7.786-6.086,14.117-13.567,14.117
				s-13.567-6.338-13.567-14.117V425.79c0-3.916-3.039-7.082-6.786-7.082h-27.136c-3.745,0-6.784,3.166-6.784,7.082v49.612
				c0,7.786-6.086,14.117-13.568,14.117c-7.479,0-13.566-6.338-13.566-14.117V425.79c0-3.916-3.038-7.082-6.785-7.082h-14.688
				c-10.602,0-19.233-8.992-19.233-20.031v-135.75h176.387L633.638,398.677L633.638,398.677z"/>
			<path fill="#221E40" d="M677.733,248.765c-13.091,0-23.743,11.13-23.743,24.813v99.077c0,13.681,10.652,24.812,23.743,24.812
				c13.096,0,23.746-11.131,23.746-24.812v-99.077C701.479,259.896,690.827,248.765,677.733,248.765z M687.911,372.655
				c0,5.871-4.567,10.648-10.178,10.648c-5.608,0-10.176-4.777-10.176-10.648v-99.077c0-5.871,4.567-10.65,10.176-10.65
				c5.61,0,10.178,4.78,10.178,10.65V372.655z"/>
			<path fill="#221E40" d="M413.155,248.765c-13.092,0-23.743,11.13-23.743,24.813v99.077c0,13.681,10.651,24.812,23.743,24.812
				c13.093,0,23.745-11.131,23.745-24.812v-99.077C436.899,259.896,426.248,248.765,413.155,248.765z M423.331,372.655
				c0,5.871-4.566,10.648-10.176,10.648c-5.61,0-10.176-4.777-10.176-10.648v-99.077c0-5.871,4.566-10.65,10.176-10.65
				c5.61,0,10.176,4.78,10.176,10.65V372.655z"/>
		</g>
	</g>
</g>
</svg>
