<?xml version="1.0" encoding="utf-8"?>
<!-- Generator: Adobe Illustrator 16.0.0, SVG Export Plug-In . SVG Version: 6.00 Build 0)  -->
<!DOCTYPE svg PUBLIC "-//W3C//DTD SVG 1.1//EN" "http://www.w3.org/Graphics/SVG/1.1/DTD/svg11.dtd">
<svg version="1.1" id="Layer_1" xmlns="http://www.w3.org/2000/svg" xmlns:xlink="http://www.w3.org/1999/xlink" x="0px" y="0px"
	 width="841.891px" height="595.281px" viewBox="0 0 841.891 595.281" enable-background="new 0 0 841.891 595.281"
	 xml:space="preserve">
<circle opacity="0.4" fill="#FEC765" enable-background="new    " cx="296" cy="297.64" r="285"/>
<g>
	<path fill="#221E40" d="M727.677,353.07V162.059c0-19.031-16.43-34.962-36.417-34.962H340.427
		c-19.991,0-36.417,15.932-36.417,34.962V353.07c0,0.563-0.166,1.134-0.166,1.727c0,0.587,0.166,1.161,0.166,1.723v33.438
		c0.089,19.096,16.354,34.544,36.417,34.596h121.4v26.702c0.069,7.977-3.647,15.548-10.11,20.616l-11.547,9.147h-34.185
		c-5.849,0-10.593,4.517-10.593,10.084c0,5.57,4.744,10.081,10.593,10.081h224.304c5.853,0,10.593-4.513,10.593-10.081
		c0-5.569-4.74-10.084-10.593-10.084h-38.771l-11.547-9.147c-6.462-5.068-10.18-12.64-10.109-20.616v-26.702H691.26
		c20.063-0.052,36.322-15.5,36.417-34.596v-33.438c0-0.562,0.166-1.136,0.166-1.723C727.844,354.204,727.677,353.632,727.677,353.07
		z M340.427,147.264H691.26c8.308,0,15.233,6.886,15.233,14.795v182.837H325.193V162.059
		C325.193,154.15,332.119,147.264,340.427,147.264z M559.515,481.018h-87.341c7.137-8.065,10.836-18.829,10.836-29.764v-26.702
		h65.666v26.702C548.677,462.189,552.378,472.952,559.515,481.018z M691.26,404.386H340.427c-8.371-0.035-15.155-6.47-15.234-14.43
		v-24.896h381.301v24.896C706.415,397.917,699.631,404.351,691.26,404.386z"/>
</g>
</svg>
